<svg width="14" height="26" viewBox="0 0 14 26" fill="none" xmlns="http://www.w3.org/2000/svg">
<path fill="#6eff46" fill-rule="evenodd" clip-rule="evenodd" d="M1.18645 0.383284C1.43824 0.16794 1.76524 0.061373 2.09557 0.0869994C2.4259 0.112626 2.73254 0.26835 2.94811 0.519951L12.9481 12.1866C13.1422 12.4131 13.2489 12.7016 13.2489 13C13.2489 13.2983 13.1422 13.5868 12.9481 13.8133L2.94811 25.48C2.72897 25.7193 2.42536 25.864 2.10147 25.8835C1.77758 25.903 1.45878 25.7958 1.21248 25.5846C0.966177 25.3734 0.811668 25.0746 0.781617 24.7515C0.751565 24.4284 0.848326 24.1063 1.05144 23.8533L10.3531 13L1.05144 2.14662C0.835705 1.89524 0.728567 1.56851 0.753568 1.23819C0.778568 0.907877 0.933661 0.600993 1.18478 0.384951" />
</svg>
