<svg width="1205" height="15" viewBox="0 0 1205 15" fill="none" xmlns="http://www.w3.org/2000/svg">
<path fill="#00814b" d="M0.475 14.76L5.643 0.357999H6.536L1.368 14.76H0.475ZM8.62867 14.76L13.7967 0.357999H14.6897L9.52167 14.76H8.62867ZM16.7823 14.76L21.9503 0.357999H22.8433L17.6753 14.76H16.7823ZM24.936 14.76L30.104 0.357999H30.997L25.829 14.76H24.936ZM33.0897 14.76L38.2577 0.357999H39.1507L33.9827 14.76H33.0897ZM41.2434 14.76L46.4114 0.357999H47.3044L42.1364 14.76H41.2434ZM49.397 14.76L54.565 0.357999H55.458L50.29 14.76H49.397ZM57.5507 14.76L62.7187 0.357999H63.6117L58.4437 14.76H57.5507ZM65.7044 14.76L70.8724 0.357999H71.7654L66.5974 14.76H65.7044ZM73.858 14.76L79.026 0.357999H79.919L74.751 14.76H73.858ZM82.0117 14.76L87.1797 0.357999H88.0727L82.9047 14.76H82.0117ZM90.1654 14.76L95.3334 0.357999H96.2264L91.0584 14.76H90.1654ZM98.3191 14.76L103.487 0.357999H104.38L99.2121 14.76H98.3191ZM106.473 14.76L111.641 0.357999H112.534L107.366 14.76H106.473ZM114.626 14.76L119.794 0.357999H120.687L115.519 14.76H114.626ZM122.78 14.76L127.948 0.357999H128.841L123.673 14.76H122.78ZM130.934 14.76L136.102 0.357999H136.995L131.827 14.76H130.934ZM139.087 14.76L144.255 0.357999H145.148L139.98 14.76H139.087ZM147.241 14.76L152.409 0.357999H153.302L148.134 14.76H147.241ZM155.395 14.76L160.563 0.357999H161.456L156.288 14.76H155.395ZM163.548 14.76L168.716 0.357999H169.609L164.441 14.76H163.548ZM171.702 14.76L176.87 0.357999H177.763L172.595 14.76H171.702ZM179.856 14.76L185.024 0.357999H185.917L180.749 14.76H179.856ZM188.009 14.76L193.177 0.357999H194.07L188.902 14.76H188.009ZM196.163 14.76L201.331 0.357999H202.224L197.056 14.76H196.163ZM204.317 14.76L209.485 0.357999H210.378L205.21 14.76H204.317ZM212.47 14.76L217.638 0.357999H218.531L213.363 14.76H212.47ZM220.624 14.76L225.792 0.357999H226.685L221.517 14.76H220.624ZM228.778 14.76L233.946 0.357999H234.839L229.671 14.76H228.778ZM236.931 14.76L242.099 0.357999H242.992L237.824 14.76H236.931ZM245.085 14.76L250.253 0.357999H251.146L245.978 14.76H245.085ZM253.239 14.76L258.407 0.357999H259.3L254.132 14.76H253.239ZM261.393 14.76L266.561 0.357999H267.454L262.286 14.76H261.393ZM269.546 14.76L274.714 0.357999H275.607L270.439 14.76H269.546ZM277.7 14.76L282.868 0.357999H283.761L278.593 14.76H277.7ZM285.854 14.76L291.022 0.357999H291.915L286.747 14.76H285.854ZM294.007 14.76L299.175 0.357999H300.068L294.9 14.76H294.007ZM302.161 14.76L307.329 0.357999H308.222L303.054 14.76H302.161ZM310.315 14.76L315.483 0.357999H316.376L311.208 14.76H310.315ZM318.468 14.76L323.636 0.357999H324.529L319.361 14.76H318.468ZM326.622 14.76L331.79 0.357999H332.683L327.515 14.76H326.622ZM334.776 14.76L339.944 0.357999H340.837L335.669 14.76H334.776ZM342.929 14.76L348.097 0.357999H348.99L343.822 14.76H342.929ZM351.083 14.76L356.251 0.357999H357.144L351.976 14.76H351.083ZM359.237 14.76L364.405 0.357999H365.298L360.13 14.76H359.237ZM367.39 14.76L372.558 0.357999H373.451L368.283 14.76H367.39ZM375.544 14.76L380.712 0.357999H381.605L376.437 14.76H375.544ZM383.698 14.76L388.866 0.357999H389.759L384.591 14.76H383.698ZM391.851 14.76L397.019 0.357999H397.912L392.744 14.76H391.851ZM400.005 14.76L405.173 0.357999H406.066L400.898 14.76H400.005ZM408.159 14.76L413.327 0.357999H414.22L409.052 14.76H408.159ZM416.312 14.76L421.48 0.357999H422.373L417.205 14.76H416.312ZM424.466 14.76L429.634 0.357999H430.527L425.359 14.76H424.466ZM432.62 14.76L437.788 0.357999H438.681L433.513 14.76H432.62ZM440.773 14.76L445.941 0.357999H446.834L441.666 14.76H440.773ZM448.927 14.76L454.095 0.357999H454.988L449.82 14.76H448.927ZM457.081 14.76L462.249 0.357999H463.142L457.974 14.76H457.081ZM465.234 14.76L470.402 0.357999H471.295L466.127 14.76H465.234ZM473.388 14.76L478.556 0.357999H479.449L474.281 14.76H473.388ZM481.542 14.76L486.71 0.357999H487.603L482.435 14.76H481.542ZM489.695 14.76L494.863 0.357999H495.756L490.588 14.76H489.695ZM497.849 14.76L503.017 0.357999H503.91L498.742 14.76H497.849ZM506.003 14.76L511.171 0.357999H512.064L506.896 14.76H506.003ZM514.156 14.76L519.324 0.357999H520.217L515.049 14.76H514.156ZM522.31 14.76L527.478 0.357999H528.371L523.203 14.76H522.31ZM530.464 14.76L535.632 0.357999H536.525L531.357 14.76H530.464ZM538.617 14.76L543.785 0.357999H544.678L539.51 14.76H538.617ZM546.771 14.76L551.939 0.357999H552.832L547.664 14.76H546.771ZM554.925 14.76L560.093 0.357999H560.986L555.818 14.76H554.925ZM563.078 14.76L568.246 0.357999H569.139L563.971 14.76H563.078ZM571.232 14.76L576.4 0.357999H577.293L572.125 14.76H571.232ZM579.386 14.76L584.554 0.357999H585.447L580.279 14.76H579.386ZM587.539 14.76L592.707 0.357999H593.6L588.432 14.76H587.539ZM595.693 14.76L600.861 0.357999H601.754L596.586 14.76H595.693ZM603.847 14.76L609.015 0.357999H609.908L604.74 14.76H603.847ZM612 14.76L617.168 0.357999H618.061L612.893 14.76H612ZM620.154 14.76L625.322 0.357999H626.215L621.047 14.76H620.154ZM628.308 14.76L633.476 0.357999H634.369L629.201 14.76H628.308ZM636.461 14.76L641.629 0.357999H642.522L637.354 14.76H636.461ZM644.615 14.76L649.783 0.357999H650.676L645.508 14.76H644.615ZM652.769 14.76L657.937 0.357999H658.83L653.662 14.76H652.769ZM660.922 14.76L666.09 0.357999H666.983L661.815 14.76H660.922ZM669.076 14.76L674.244 0.357999H675.137L669.969 14.76H669.076ZM677.23 14.76L682.398 0.357999H683.291L678.123 14.76H677.23ZM685.383 14.76L690.551 0.357999H691.444L686.276 14.76H685.383ZM693.537 14.76L698.705 0.357999H699.598L694.43 14.76H693.537ZM701.691 14.76L706.859 0.357999H707.752L702.584 14.76H701.691ZM709.844 14.76L715.012 0.357999H715.905L710.737 14.76H709.844ZM717.998 14.76L723.166 0.357999H724.059L718.891 14.76H717.998ZM726.152 14.76L731.32 0.357999H732.213L727.045 14.76H726.152ZM734.305 14.76L739.473 0.357999H740.366L735.198 14.76H734.305ZM742.459 14.76L747.627 0.357999H748.52L743.352 14.76H742.459ZM750.613 14.76L755.781 0.357999H756.674L751.506 14.76H750.613ZM758.767 14.76L763.935 0.357999H764.828L759.66 14.76H758.767ZM766.92 14.76L772.088 0.357999H772.981L767.813 14.76H766.92ZM775.074 14.76L780.242 0.357999H781.135L775.967 14.76H775.074ZM783.228 14.76L788.396 0.357999H789.289L784.121 14.76H783.228ZM791.381 14.76L796.549 0.357999H797.442L792.274 14.76H791.381ZM799.535 14.76L804.703 0.357999H805.596L800.428 14.76H799.535ZM807.689 14.76L812.857 0.357999H813.75L808.582 14.76H807.689ZM815.842 14.76L821.01 0.357999H821.903L816.735 14.76H815.842ZM823.996 14.76L829.164 0.357999H830.057L824.889 14.76H823.996ZM832.149 14.76L837.317 0.357999H838.21L833.042 14.76H832.149ZM840.303 14.76L845.471 0.357999H846.364L841.196 14.76H840.303ZM848.457 14.76L853.625 0.357999H854.518L849.35 14.76H848.457ZM856.611 14.76L861.779 0.357999H862.672L857.504 14.76H856.611ZM864.764 14.76L869.932 0.357999H870.825L865.657 14.76H864.764ZM872.918 14.76L878.086 0.357999H878.979L873.811 14.76H872.918ZM881.072 14.76L886.24 0.357999H887.133L881.965 14.76H881.072ZM889.225 14.76L894.393 0.357999H895.286L890.118 14.76H889.225ZM897.379 14.76L902.547 0.357999H903.44L898.272 14.76H897.379ZM905.533 14.76L910.701 0.357999H911.594L906.426 14.76H905.533ZM913.686 14.76L918.854 0.357999H919.747L914.579 14.76H913.686ZM921.84 14.76L927.008 0.357999H927.901L922.733 14.76H921.84ZM929.994 14.76L935.162 0.357999H936.055L930.887 14.76H929.994ZM938.147 14.76L943.315 0.357999H944.208L939.04 14.76H938.147ZM946.301 14.76L951.469 0.357999H952.362L947.194 14.76H946.301ZM954.455 14.76L959.623 0.357999H960.516L955.348 14.76H954.455ZM962.608 14.76L967.776 0.357999H968.669L963.501 14.76H962.608ZM970.762 14.76L975.93 0.357999H976.823L971.655 14.76H970.762ZM978.916 14.76L984.084 0.357999H984.977L979.809 14.76H978.916ZM987.069 14.76L992.237 0.357999H993.13L987.962 14.76H987.069ZM995.223 14.76L1000.39 0.357999H1001.28L996.116 14.76H995.223ZM1003.38 14.76L1008.54 0.357999H1009.44L1004.27 14.76H1003.38ZM1011.53 14.76L1016.7 0.357999H1017.59L1012.42 14.76H1011.53ZM1019.68 14.76L1024.85 0.357999H1025.74L1020.58 14.76H1019.68ZM1027.84 14.76L1033.01 0.357999H1033.9L1028.73 14.76H1027.84ZM1035.99 14.76L1041.16 0.357999H1042.05L1036.88 14.76H1035.99ZM1044.15 14.76L1049.31 0.357999H1050.21L1045.04 14.76H1044.15ZM1052.3 14.76L1057.47 0.357999H1058.36L1053.19 14.76H1052.3ZM1060.45 14.76L1065.62 0.357999H1066.51L1061.35 14.76H1060.45ZM1068.61 14.76L1073.77 0.357999H1074.67L1069.5 14.76H1068.61ZM1076.76 14.76L1081.93 0.357999H1082.82L1077.65 14.76H1076.76ZM1084.91 14.76L1090.08 0.357999H1090.97L1085.81 14.76H1084.91ZM1093.07 14.76L1098.24 0.357999H1099.13L1093.96 14.76H1093.07ZM1101.22 14.76L1106.39 0.357999H1107.28L1102.11 14.76H1101.22ZM1109.37 14.76L1114.54 0.357999H1115.44L1110.27 14.76H1109.37ZM1117.53 14.76L1122.7 0.357999H1123.59L1118.42 14.76H1117.53ZM1125.68 14.76L1130.85 0.357999H1131.74L1126.57 14.76H1125.68ZM1133.84 14.76L1139 0.357999H1139.9L1134.73 14.76H1133.84ZM1141.99 14.76L1147.16 0.357999H1148.05L1142.88 14.76H1141.99ZM1150.14 14.76L1155.31 0.357999H1156.2L1151.04 14.76H1150.14ZM1158.3 14.76L1163.46 0.357999H1164.36L1159.19 14.76H1158.3ZM1166.45 14.76L1171.62 0.357999H1172.51L1167.34 14.76H1166.45ZM1174.6 14.76L1179.77 0.357999H1180.66L1175.5 14.76H1174.6ZM1182.76 14.76L1187.93 0.357999H1188.82L1183.65 14.76H1182.76ZM1190.91 14.76L1196.08 0.357999H1196.97L1191.8 14.76H1190.91ZM1199.06 14.76L1204.23 0.357999H1205.13L1199.96 14.76H1199.06Z"/>
</svg>
